# xmcd
# 
# Track frame offsets:
#     150
#     16312
#     29628
#     39254
#     48656
#     60649
#     71939
#     84028
#     96597
#     108862
#     118134
#     129039
#     138865
#     147707
#     158399
#     170722
#     182329
#     193511
#     204549
#     214235
#     227541
#     238352
#     247990
#     258399
#     267889
#     277315
#     290392
#     300412
# 
# Disc length: 4160
# 
# Revision: 4
# Processed by: cddbd v1.5.2PL0 Copyright (c) Steve Scherf et al.
# Submitted via: fre:ac v1.0.31
# 
DISCID=99103e1c
DTITLE=Various Artist - Bluesin' By The Bayou - Rough'n'Tough
DYEAR=2014
DGENRE=Blues
TTITLE0=Lightnin' Slim and Lazy Lester - Trip to Chicago
TTITLE1=Vince Monroe - Change Your Ways
TTITLE2=Joe Mayfield - Look Out Baby
TTITLE3=Lonesome Sundown - If Anybody Asks You
TTITLE4=Clifton Chenier - Don't You Want a Man (Everybody Calls Me Crazy)
TTITLE5=Slim Harpo - Bought Me a Ticket
TTITLE6=Boozoo Chavis - Paper in My Shoe
TTITLE7=Clarence Garlow and His Accordion - Za Belle
TTITLE8=Lazy Lester - Sugar Coated Love
TTITLE9=Morris "Big" Chenier - The Dog and His Puppies
TTITLE10=Hop Wilson with the Ivory Lee Semien Band - Love's Got Me All Fenced In
TTITLE11=Mad Dog Sheffield - I Love You So
TTITLE12=Guitar Jr. - Fine Fine Fine Pretty Little Thing
TTITLE13=Joe Mayfield - You're the One I Love
TTITLE14=Wonder Boy Travis - Imitation of Love
TTITLE15=Vince Monroe - They Call Me Mr. Calhoun
TTITLE16=Jimmy Anderson and The Joy Jumpers - I Wanna Boogie
TTITLE17=Clarence Garlow - It Isn't Right
TTITLE18=Boozoo Chavis - Got Me a Brand New Mojo Hand
TTITLE19=Mad Dog Sheffield - Nothing Can Keep My Love from You
TTITLE20=Lightnin' Slim - Tired Little Fellow
TTITLE21=Lasy Lester - Whoa Now!
TTITLE22=Jimmy Anderson and The Joy Jumpers - Keep on Naggin'
TTITLE23=Jimmy Dotson and The Blue Boys - Looking for My Baby
TTITLE24=Lonesome Sundown - I'm Gonna Stick to You
TTITLE25=Lightnin' Slim - I'm Tired of Waiting Baby
TTITLE26=Guitar Jr. - Love Me Baby
TTITLE27=Slim Harpo - My Little Queen Bee
EXTD=
EXTT0=
EXTT1=
EXTT2=
EXTT3=
EXTT4=
EXTT5=
EXTT6=
EXTT7=
EXTT8=
EXTT9=
EXTT10=
EXTT11=
EXTT12=
EXTT13=
EXTT14=
EXTT15=
EXTT16=
EXTT17=
EXTT18=
EXTT19=
EXTT20=
EXTT21=
EXTT22=
EXTT23=
EXTT24=
EXTT25=
EXTT26=
EXTT27=
PLAYORDER=
